<?xml version="1.0" standalone="no"?>
<!DOCTYPE svg PUBLIC "-//W3C//DTD SVG 20010904//EN"
 "http://www.w3.org/TR/2001/REC-SVG-20010904/DTD/svg10.dtd">
<svg version="1.0" xmlns="http://www.w3.org/2000/svg"
 width="711.000000pt" height="711.000000pt" viewBox="0 0 711.000000 711.000000"
 preserveAspectRatio="xMidYMid meet">
<metadata>
Created by potrace 1.14, written by Peter Selinger 2001-2017
</metadata>
<g transform="translate(0.000000,711.000000) scale(0.100000,-0.100000)"
fill="#000000" stroke="none">
<path d="M3580 7095 c0 -8 -4 -15 -10 -15 -5 0 -10 -11 -10 -25 0 -16 -6 -25
-15 -25 -10 0 -15 -10 -15 -30 0 -20 -5 -30 -15 -30 -11 0 -15 -11 -15 -40 0
-29 -4 -40 -15 -40 -11 0 -15 -11 -15 -40 0 -29 -4 -40 -15 -40 -10 0 -15 -10
-15 -28 0 -15 -6 -34 -12 -41 -10 -11 -10 -13 0 -7 6 4 12 2 12 -3 0 -6 -4
-11 -10 -11 -5 0 -10 -11 -10 -25 0 -16 -6 -25 -15 -25 -11 0 -15 -12 -15 -45
0 -33 -4 -45 -15 -45 -11 0 -15 -11 -15 -40 0 -29 -4 -40 -15 -40 -11 0 -15
-11 -15 -40 0 -22 -4 -40 -10 -40 -5 0 -10 -20 -10 -45 0 -33 -4 -45 -15 -45
-9 0 -15 -9 -15 -25 0 -16 -6 -25 -15 -25 -12 0 -15 -14 -15 -70 0 -56 -3 -70
-15 -70 -12 0 -15 -13 -15 -55 0 -42 -3 -55 -15 -55 -10 0 -15 -10 -15 -30 0
-16 -4 -30 -10 -30 -5 0 -10 7 -10 15 0 8 -7 15 -15 15 -8 0 -15 7 -15 15 0 8
-7 15 -15 15 -8 0 -15 5 -15 11 0 5 5 7 11 4 6 -4 5 2 -3 14 -7 12 -18 21 -25
21 -7 0 -13 7 -13 15 0 12 -12 15 -55 14 -39 -2 -55 -6 -55 -16 0 -7 7 -13 15
-13 9 0 15 -9 15 -25 0 -14 6 -25 14 -25 10 0 14 -27 15 -125 1 -105 -1 -125
-14 -125 -11 0 -15 -12 -16 -47 -1 -27 -1 -52 0 -56 1 -5 -3 -6 -9 -2 -5 3
-15 -6 -20 -20 -6 -15 -15 -23 -21 -20 -6 4 -10 1 -8 -6 4 -32 -2 -60 -11 -54
-6 4 -10 3 -9 -2 4 -24 -3 -43 -16 -43 -8 0 -15 -7 -15 -15 0 -8 -7 -15 -15
-15 -9 0 -15 -6 -14 -12 4 -31 -2 -48 -16 -48 -9 0 -15 -9 -15 -25 0 -14 -4
-25 -10 -25 -5 0 -10 -13 -10 -30 0 -20 -5 -30 -15 -30 -8 0 -15 -4 -15 -10 0
-5 -7 -10 -15 -10 -8 0 -15 -7 -15 -15 0 -8 -7 -15 -15 -15 -11 0 -15 -12 -15
-45 0 -33 -4 -45 -15 -45 -9 0 -15 -9 -15 -25 0 -14 -4 -25 -10 -25 -5 0 -10
-7 -10 -15 0 -8 -7 -15 -15 -15 -8 0 -15 -7 -15 -15 0 -8 -7 -15 -15 -15 -8 0
-15 -4 -15 -10 0 -5 -7 -10 -15 -10 -8 0 -15 -7 -15 -15 0 -8 -4 -15 -10 -15
-5 0 -10 -7 -10 -15 0 -8 -7 -15 -15 -15 -8 0 -15 -7 -15 -15 0 -8 -7 -15 -15
-15 -8 0 -15 -7 -15 -15 0 -9 -10 -15 -26 -15 -26 0 -54 -20 -54 -39 0 -6 -7
-11 -15 -11 -8 0 -15 -7 -15 -15 0 -8 -7 -15 -15 -15 -9 0 -15 -9 -15 -25 0
-16 -6 -25 -15 -25 -8 0 -15 -7 -15 -15 0 -8 -4 -15 -10 -15 -5 0 -10 -7 -10
-15 0 -8 -7 -15 -15 -15 -10 0 -15 -10 -15 -30 0 -20 -5 -30 -15 -30 -11 0
-15 -11 -15 -40 0 -29 -4 -40 -15 -40 -11 0 -15 -11 -15 -40 0 -29 -4 -40 -15
-40 -8 0 -15 7 -15 15 0 8 -4 15 -10 15 -5 0 -10 25 -10 55 0 42 -3 55 -15 55
-11 0 -15 11 -15 40 0 22 -5 40 -11 40 -5 0 -7 -6 -3 -12 6 -10 4 -10 -7 0
-19 17 -59 15 -59 -3 0 -8 -7 -15 -15 -15 -11 0 -15 -11 -15 -40 0 -29 -4 -40
-15 -40 -11 0 -15 -11 -15 -40 0 -29 -4 -40 -15 -40 -12 0 -15 -13 -15 -60 0
-47 -3 -60 -15 -60 -13 0 -15 -25 -15 -165 0 -103 -4 -165 -10 -165 -5 0 -10
7 -10 15 0 8 -7 15 -15 15 -9 0 -15 9 -15 25 0 16 -6 25 -15 25 -10 0 -15 10
-15 30 0 20 -5 30 -15 30 -8 0 -15 7 -15 15 0 8 -6 15 -13 15 -22 0 -37 -23
-37 -57 0 -23 -5 -33 -15 -33 -13 0 -15 -26 -15 -170 0 -141 2 -168 14 -164
11 4 14 -9 13 -67 -1 -48 -6 -74 -14 -76 -8 -3 -13 4 -13 16 0 12 -6 21 -15
21 -11 0 -15 11 -15 40 0 29 -4 40 -15 40 -10 0 -15 10 -15 30 0 17 -4 30 -10
30 -5 0 -10 11 -10 25 0 16 -6 25 -15 25 -10 0 -15 10 -15 30 0 20 -5 30 -15
30 -11 0 -15 11 -15 40 0 29 -4 40 -15 40 -10 0 -15 10 -15 30 0 17 -4 30 -10
30 -5 0 -10 18 -10 40 0 29 -4 40 -15 40 -11 0 -15 12 -15 45 0 32 -4 45 -14
45 -9 0 -16 12 -18 28 -2 15 -8 26 -15 25 -9 -2 -13 10 -13 37 0 29 -4 40 -15
40 -8 0 -15 7 -15 15 0 8 -4 15 -10 15 -5 0 -10 7 -10 15 0 8 -7 15 -15 15 -8
0 -15 -7 -15 -15 0 -8 -7 -15 -15 -15 -11 0 -15 -11 -15 -40 0 -29 -4 -40 -15
-40 -11 0 -15 -11 -15 -40 0 -22 -4 -40 -9 -40 -6 0 -11 -15 -13 -32 -2 -20
-8 -32 -15 -31 -10 2 -13 -41 -13 -192 0 -167 -2 -195 -15 -195 -13 0 -15 -21
-15 -125 0 -106 2 -125 16 -125 12 0 15 -12 13 -68 -1 -50 -6 -69 -15 -69 -10
0 -11 4 -3 14 8 9 8 13 0 13 -6 0 -11 7 -11 15 0 8 -7 15 -15 15 -8 0 -15 7
-15 15 0 8 -7 15 -15 15 -8 0 -15 5 -15 10 0 6 -18 10 -40 10 l-40 0 0 -150
c0 -127 2 -150 15 -150 11 0 15 -12 15 -45 0 -33 -4 -45 -15 -45 -9 0 -15 -9
-15 -25 0 -16 6 -25 15 -25 12 0 15 -16 15 -80 0 -62 3 -82 15 -86 8 -4 15
-17 15 -30 0 -13 5 -24 10 -24 6 0 10 -20 10 -45 0 -33 4 -45 15 -45 8 0 15
-4 15 -10 0 -5 7 -10 15 -10 10 0 15 -10 15 -30 0 -20 5 -30 15 -30 8 0 15 -7
15 -15 0 -9 9 -15 25 -15 14 0 24 -3 24 -7 -4 -25 3 -43 16 -43 11 0 15 -12
15 -45 0 -33 4 -45 15 -45 12 0 15 -14 15 -70 l0 -70 -140 0 c-87 0 -140 -4
-140 -10 0 -5 -18 -10 -40 -10 -29 0 -40 -4 -40 -15 0 -10 -10 -15 -26 -15
-15 0 -33 -8 -41 -17 -14 -17 -14 -17 -8 2 6 19 5 19 -14 -2 -12 -12 -21 -27
-21 -33 0 -5 -13 -10 -30 -10 -16 0 -30 -4 -30 -10 0 -5 -7 -10 -15 -10 -8 0
-15 -7 -15 -15 0 -8 -4 -15 -10 -15 -5 0 -10 -7 -10 -15 0 -8 -7 -15 -15 -15
-8 0 -15 -7 -15 -15 0 -8 -7 -15 -15 -15 -8 0 -15 -7 -15 -15 0 -8 -7 -15 -15
-15 -13 0 -20 -18 -16 -42 0 -5 -6 -8 -14 -8 -8 0 -15 -6 -15 -14 0 -8 -5 -16
-10 -18 -6 -2 -12 -13 -13 -26 0 -12 -7 -22 -14 -22 -7 0 -13 -7 -13 -15 0 -8
-7 -15 -15 -15 -10 0 -15 -10 -15 -30 0 -16 -4 -30 -10 -30 -5 0 -7 8 -4 18 5
14 4 15 -5 2 -20 -27 -13 -64 14 -77 14 -6 23 -7 19 -2 -3 5 13 8 35 7 22 -1
38 -5 36 -9 -8 -12 23 -19 81 -19 41 0 54 -4 54 -15 0 -11 12 -15 48 -16 26
-1 50 -1 55 0 4 0 7 -6 7 -14 0 -11 12 -15 45 -15 25 0 45 -4 45 -10 0 -5 18
-10 40 -10 29 0 40 -4 40 -15 0 -12 18 -15 100 -15 82 0 100 -3 100 -15 0 -8
5 -15 10 -15 6 0 10 -7 10 -15 0 -13 32 -15 225 -15 193 0 225 -2 225 -15 0
-9 9 -15 25 -15 14 0 25 -4 25 -10 0 -5 -18 -10 -40 -10 -30 0 -40 -4 -40 -16
0 -13 -16 -15 -102 -14 -229 3 -258 1 -258 -15 0 -10 -10 -15 -30 -15 -16 0
-30 -5 -30 -11 0 -18 -27 -39 -54 -41 -13 -1 -22 -6 -20 -10 3 -5 11 -5 17 -2
7 4 8 3 4 -2 -9 -9 -13 -10 -42 -13 -10 -1 -15 -12 -15 -31 0 -20 5 -30 15
-30 8 0 15 -7 15 -15 0 -8 -7 -15 -15 -15 -8 0 -15 -4 -15 -10 0 -5 -11 -10
-25 -10 -16 0 -25 -6 -25 -15 0 -8 -7 -15 -15 -15 -8 0 -15 -7 -15 -15 0 -8
-7 -15 -15 -15 -8 0 -15 -6 -15 -14 0 -7 -9 -16 -21 -19 -11 -3 -23 -15 -26
-26 -3 -12 -12 -21 -19 -21 -8 0 -14 -7 -14 -15 0 -8 -7 -15 -15 -15 -9 0 -15
-9 -15 -24 0 -14 -4 -28 -10 -31 -6 -3 -7 1 -4 9 3 9 2 16 -3 16 -5 0 -10 -8
-11 -17 -4 -37 -8 -53 -17 -60 -4 -4 -5 -3 -1 4 3 6 3 14 -2 17 -5 3 -10 -19
-11 -49 l-2 -55 30 0 c17 0 31 4 31 9 0 6 19 11 43 13 27 2 41 7 40 16 -2 8
11 12 41 12 30 0 46 5 50 15 7 20 205 22 225 2 11 -9 13 -9 7 1 -4 6 -2 12 3
12 6 0 11 -7 11 -15 0 -8 5 -15 10 -15 6 0 10 -7 10 -15 0 -11 12 -15 45 -15
41 0 45 -2 45 -25 0 -14 -3 -24 -7 -24 -5 1 -29 1 -55 0 -36 -1 -48 -5 -48
-16 0 -8 -7 -15 -15 -15 -8 0 -15 -7 -15 -15 0 -8 7 -15 16 -15 8 0 13 -4 10
-8 -6 -9 29 -42 44 -42 6 0 10 -7 10 -15 0 -10 -10 -15 -27 -16 -16 0 -22 -3
-15 -6 13 -5 17 -24 5 -22 -25 4 -43 -3 -43 -16 0 -8 -7 -15 -15 -15 -8 0 -15
-4 -15 -10 0 -5 -7 -10 -15 -10 -10 0 -15 -10 -15 -30 0 -16 -4 -30 -10 -30
-5 0 -10 -13 -10 -30 0 -20 -5 -30 -15 -30 -11 0 -15 -11 -15 -40 0 -36 3 -40
25 -40 20 0 25 -5 25 -24 0 -13 -4 -26 -9 -28 -6 -2 -11 -45 -12 -96 -1 -51
-6 -95 -12 -99 -5 -3 -7 -1 -3 5 3 6 3 13 -2 16 -5 3 -10 -19 -11 -49 -2 -44
1 -55 13 -55 9 0 15 -3 15 -7 -1 -5 -1 -43 0 -85 l1 -78 40 0 c29 0 40 4 40
15 0 8 7 15 15 15 8 0 15 5 15 11 0 14 25 39 39 39 6 0 11 7 11 15 0 10 10 15
30 15 20 0 30 5 30 15 0 8 7 15 15 15 8 0 15 7 15 15 0 12 13 15 55 15 42 0
55 3 55 15 0 9 9 15 25 15 14 0 25 5 25 10 0 6 14 10 30 10 20 0 30 5 30 15 0
9 9 15 25 15 16 0 25 6 25 15 0 10 10 15 30 15 20 0 30 5 30 15 0 9 9 15 25
15 14 0 25 5 25 10 0 6 7 10 15 10 8 0 15 7 15 15 0 8 7 15 15 15 8 0 15 7 15
15 0 8 7 15 15 15 10 0 15 10 15 30 0 20 5 30 15 30 9 0 15 9 15 25 0 14 5 25
10 25 6 0 10 -12 10 -26 0 -24 2 -25 17 -13 11 10 14 10 9 2 -5 -10 2 -13 28
-13 19 0 37 6 39 13 4 9 8 9 16 -3 5 -8 7 -19 3 -25 -3 -5 2 -4 12 4 15 12 17
12 14 0 -2 -9 8 -15 30 -17 24 -2 32 1 32 12 0 10 9 16 25 16 14 0 25 5 25 10
0 6 20 10 45 10 33 0 45 4 45 15 0 9 9 15 25 15 16 0 25 6 25 15 0 10 10 15
30 15 20 0 30 5 30 15 0 8 7 15 15 15 8 0 15 5 15 10 0 6 11 10 25 10 16 0 25
6 25 15 0 8 7 15 15 15 8 0 16 7 16 15 3 29 4 33 13 42 5 4 6 3 2 -4 -3 -6 -3
-14 2 -17 4 -2 9 7 10 20 2 27 23 54 41 54 6 0 11 7 11 15 0 12 19 15 110 15
91 0 110 -3 110 -15 0 -8 7 -15 15 -15 8 0 15 -4 15 -10 0 -5 7 -10 15 -10 8
0 15 -7 15 -15 0 -8 7 -15 15 -15 8 0 15 -7 15 -15 0 -8 7 -15 15 -15 9 0 15
-10 15 -26 0 -26 20 -54 39 -54 6 0 11 -7 11 -15 0 -8 7 -15 15 -15 8 0 15 -7
15 -15 0 -9 9 -15 25 -15 23 0 25 4 25 40 0 29 4 40 15 40 10 0 15 10 15 30 0
20 5 30 15 30 13 0 21 -26 16 -53 -1 -5 3 -6 9 -2 6 3 7 12 4 18 -4 7 -3 8 2
4 5 -5 10 -13 10 -18 1 -5 2 -13 3 -19 0 -5 8 -10 16 -10 10 0 15 -10 15 -30
0 -16 5 -30 10 -30 6 0 10 -18 10 -40 0 -29 4 -40 15 -40 11 0 15 -11 15 -40
0 -27 5 -43 15 -46 8 -4 15 -17 15 -30 0 -15 6 -24 15 -24 10 0 15 -10 15 -29
0 -16 4 -31 10 -33 5 -2 10 -20 12 -40 1 -20 6 -34 10 -32 5 3 5 11 2 17 -4 7
-3 8 1 4 10 -8 13 -24 17 -75 1 -18 8 -32 15 -32 12 0 19 -41 13 -79 -1 -13 1
-13 15 -1 9 7 15 9 14 4 -4 -21 2 -34 16 -34 10 0 15 -10 15 -30 0 -30 1 -30
55 -30 l55 0 0 40 c0 22 5 40 10 40 6 0 10 20 10 45 0 33 4 45 15 45 13 0 21
32 16 63 -1 4 6 10 14 13 9 4 15 19 15 35 0 19 5 29 15 29 11 0 15 11 15 40 0
29 4 40 15 40 9 0 15 9 15 25 0 14 5 25 10 25 6 0 10 20 10 45 0 33 4 45 15
45 9 0 15 9 15 25 0 16 6 25 15 25 10 0 15 10 15 30 0 20 5 30 15 30 9 0 15 9
15 25 0 14 5 25 10 25 6 0 10 14 10 30 0 20 5 30 15 30 10 0 15 10 15 31 0 23
4 30 17 27 14 -3 16 -16 14 -85 l-2 -83 40 0 c30 0 41 4 41 15 0 8 7 15 15 15
8 0 15 5 15 10 0 6 7 10 15 10 10 0 15 10 15 30 0 20 5 30 15 30 8 0 15 7 15
15 0 8 5 15 10 15 6 0 10 7 10 15 0 10 10 15 30 15 25 0 30 4 30 25 l0 25 116
0 c68 0 113 -4 109 -9 -3 -5 0 -13 6 -17 7 -4 9 -3 5 4 -3 6 -2 13 4 17 5 3
10 -1 10 -9 0 -9 7 -16 15 -16 9 0 15 -9 15 -25 0 -16 6 -25 15 -25 8 0 15 -7
15 -15 0 -8 5 -15 10 -15 6 0 10 -7 10 -15 0 -8 7 -15 15 -15 8 0 15 -7 15
-15 0 -8 7 -15 15 -15 8 0 15 -4 15 -10 0 -5 7 -10 15 -10 8 0 15 -7 15 -15 0
-11 11 -15 40 -15 29 0 40 -4 40 -15 0 -10 10 -15 30 -15 20 0 30 -5 30 -15 0
-11 11 -15 40 -15 22 0 40 -4 40 -10 0 -5 9 -10 20 -10 11 0 19 -6 18 -12 -2
-8 11 -14 35 -16 l37 -3 0 40 c0 30 4 41 15 41 8 0 15 -7 15 -15 0 -8 7 -15
15 -15 8 0 15 -4 15 -10 0 -5 11 -10 25 -10 20 0 25 5 25 25 0 16 6 25 15 25
8 0 15 -7 15 -15 0 -8 7 -15 15 -15 9 0 15 -9 15 -25 0 -14 5 -25 10 -25 6 0
10 -7 10 -15 0 -8 7 -15 15 -15 8 0 15 -7 15 -15 0 -8 7 -15 15 -15 8 0 15 -7
15 -15 0 -14 18 -20 49 -16 7 2 10 -2 6 -8 -3 -6 1 -11 9 -11 9 0 16 -6 16
-14 0 -7 14 -16 31 -20 17 -3 28 -10 24 -16 -4 -6 6 -10 24 -10 21 0 31 -5 31
-15 0 -9 10 -15 26 -15 15 0 23 -4 19 -10 -4 -6 -3 -10 2 -9 33 6 73 -3 73
-16 0 -12 13 -15 55 -15 42 0 55 -3 55 -15 0 -8 5 -15 10 -15 6 0 10 -7 10
-15 0 -8 7 -15 15 -15 8 0 15 -7 15 -15 0 -10 10 -15 30 -15 17 0 30 -4 30
-10 0 -5 7 -10 15 -10 8 0 15 -7 15 -15 0 -8 5 -15 10 -15 6 0 10 -7 10 -15 0
-10 10 -15 30 -15 l30 0 0 70 c0 56 3 70 15 70 12 0 15 16 15 85 0 69 -3 85
-15 85 -12 0 -15 16 -15 86 0 65 -3 83 -12 78 -9 -5 -9 -2 1 9 7 9 20 17 27
17 10 0 14 15 14 55 0 42 -3 55 -15 55 -10 0 -15 10 -15 30 0 20 -5 30 -15 30
-8 0 -15 7 -15 15 0 8 -5 15 -11 15 -14 0 -39 25 -39 39 0 6 -7 11 -15 11 -8
0 -15 7 -15 15 0 10 -10 15 -28 15 -19 0 -29 5 -29 15 0 9 6 14 14 11 7 -3 13
1 13 9 0 10 10 15 30 15 29 0 30 2 30 45 l0 45 -45 0 c-33 0 -45 4 -45 15 0 9
-9 15 -25 15 -14 0 -25 5 -25 10 0 6 18 10 40 10 29 0 40 4 40 15 0 10 10 15
30 15 20 0 30 5 30 15 0 12 19 15 110 15 91 0 110 -3 110 -15 0 -12 13 -15 55
-15 42 0 55 -3 55 -15 0 -9 9 -15 25 -15 14 0 25 -4 25 -10 0 -5 14 -10 30
-10 30 0 30 1 30 55 0 42 -3 55 -15 55 -9 0 -15 9 -15 25 0 16 -6 25 -15 25
-8 0 -15 7 -15 15 0 8 -4 15 -10 15 -5 0 -10 14 -10 30 0 20 -5 30 -15 30 -8
0 -15 5 -15 10 0 6 -5 10 -11 10 -5 0 -7 -5 -3 -12 4 -7 3 -8 -4 -4 -7 4 -12
16 -12 27 0 10 -7 19 -15 19 -8 0 -15 7 -15 15 0 9 -9 15 -25 15 -16 0 -25 6
-25 15 0 8 -7 15 -15 15 -8 0 -15 5 -15 10 0 6 -7 10 -15 10 -9 0 -15 10 -15
26 0 17 4 23 13 18 9 -6 9 -4 0 7 -7 7 -13 26 -13 41 0 23 -4 28 -25 28 -14 0
-25 5 -25 10 0 6 -13 10 -30 10 -20 0 -30 5 -30 15 0 8 -7 15 -15 15 -8 0 -15
7 -15 15 0 12 -13 15 -55 15 -42 0 -55 3 -55 15 0 12 -14 15 -70 15 -56 0 -70
-3 -70 -15 0 -12 -14 -15 -70 -15 -56 0 -70 3 -70 15 0 13 -38 22 -72 16 -5 0
-8 4 -8 9 0 6 14 10 30 10 20 0 30 5 30 15 0 13 27 15 186 15 161 0 185 2 180
15 -3 8 -1 15 3 15 5 0 12 -6 14 -12 4 -10 6 -10 6 0 1 7 16 12 41 12 38 0 40
2 40 30 0 32 23 42 34 15 8 -22 156 -22 156 0 0 11 12 15 44 15 24 0 46 4 48
9 2 6 27 11 56 12 39 2 51 6 48 16 -4 10 6 13 39 13 33 0 45 4 45 15 0 12 13
15 55 15 42 0 55 3 55 15 0 12 16 15 85 15 84 0 85 0 85 25 0 16 -6 25 -15 25
-8 0 -15 7 -15 15 0 8 -7 15 -15 15 -8 0 -15 7 -15 15 0 8 -4 15 -10 15 -5 0
-10 11 -10 25 0 16 -6 25 -15 25 -10 0 -15 10 -15 30 0 20 -5 30 -15 30 -8 0
-15 7 -15 15 0 8 -7 15 -15 15 -9 0 -15 9 -15 25 0 16 -6 25 -15 25 -8 0 -15
7 -15 15 0 8 -4 15 -10 15 -5 0 -10 7 -10 15 0 8 -7 15 -15 15 -8 0 -15 7 -15
15 0 9 -10 15 -26 15 -26 0 -54 20 -54 39 0 6 -13 11 -30 11 -20 0 -30 5 -30
15 0 10 -10 15 -30 15 -20 0 -30 5 -30 15 0 11 -11 15 -40 15 -22 0 -40 5 -40
10 0 6 -57 10 -150 10 -127 0 -150 2 -150 15 0 8 5 15 10 15 6 0 10 14 10 30
0 17 -4 30 -10 30 -5 0 -10 7 -10 15 0 8 4 15 10 15 5 0 9 3 9 8 -6 34 3 72
16 72 11 0 15 11 15 40 0 38 2 40 30 40 20 0 30 5 30 15 0 8 5 15 10 15 6 0
10 7 10 15 0 8 7 15 15 15 9 0 15 9 15 25 0 16 6 25 15 25 10 0 15 10 15 30 0
20 5 30 15 30 9 0 15 9 15 25 0 16 6 25 15 25 12 0 15 14 15 70 0 40 4 70 10
70 6 0 10 25 10 55 0 30 -4 55 -10 55 -5 0 -10 5 -10 11 0 5 5 7 11 4 6 -4 5
3 -3 15 -10 18 -10 24 0 27 7 3 12 25 12 59 0 39 4 54 14 54 10 0 14 20 15 85
2 71 -1 85 -14 85 -9 0 -15 9 -15 25 0 19 -5 25 -23 25 -13 0 -29 -6 -36 -12
-11 -11 -12 -10 -6 1 5 9 4 12 -3 7 -7 -4 -12 -16 -12 -27 0 -10 -7 -19 -15
-19 -8 0 -15 -7 -15 -15 0 -8 -7 -15 -15 -15 -8 0 -15 -7 -15 -15 0 -8 -4 -15
-10 -15 -5 0 -10 25 -10 55 0 30 5 55 10 55 6 0 10 58 10 155 0 85 -4 155 -8
155 -5 0 -9 43 -11 95 -2 63 1 95 8 95 6 0 10 13 9 30 -1 17 -6 30 -10 30 -4
0 -7 3 -7 8 1 4 1 35 0 70 -1 47 -5 62 -15 62 -8 0 -16 11 -18 25 -2 14 -7 25
-13 25 -5 0 -12 21 -15 47 -3 31 -9 47 -17 46 -8 -2 -13 7 -13 22 0 14 -4 25
-10 25 -5 0 -10 7 -10 15 0 8 -7 15 -15 15 -8 0 -15 -7 -15 -15 0 -8 -7 -15
-15 -15 -9 0 -15 -9 -15 -25 0 -16 -6 -25 -15 -25 -10 0 -15 -10 -15 -28 0
-15 -6 -34 -12 -41 -10 -11 -10 -13 0 -7 6 4 12 2 12 -3 0 -6 -7 -11 -15 -11
-11 0 -15 -11 -15 -40 0 -22 -4 -40 -10 -40 -5 0 -10 -14 -10 -31 0 -24 -4
-30 -15 -25 -12 4 -15 -4 -15 -39 0 -33 -4 -45 -15 -45 -9 0 -15 -9 -15 -25 0
-16 -6 -25 -15 -25 -10 0 -15 -10 -15 -29 0 -16 -4 -31 -10 -33 -5 -1 -10 -20
-12 -41 -1 -26 -6 -36 -15 -33 -9 4 -13 -3 -13 -20 0 -17 -4 -23 -12 -18 -8 5
-8 2 1 -10 12 -15 12 -17 0 -14 -9 2 -15 -7 -17 -24 -2 -16 -9 -28 -18 -28
-10 0 -14 -13 -14 -45 0 -33 -4 -45 -15 -45 -9 0 -15 -9 -15 -25 0 -14 -4 -25
-10 -25 -5 0 -10 24 -10 54 0 30 4 58 10 61 14 8 14 435 0 435 -5 0 -10 14
-10 30 0 24 -4 30 -21 30 -15 0 -19 -5 -15 -16 3 -8 2 -12 -4 -9 -15 9 -50
-33 -50 -60 0 -14 -4 -25 -10 -25 -5 0 -10 -7 -10 -15 0 -8 -7 -15 -15 -15 -8
0 -15 -9 -15 -20 0 -13 -5 -18 -15 -14 -8 4 -15 12 -15 20 0 8 7 14 15 14 12
0 15 13 15 60 0 41 -4 60 -12 60 -9 0 -8 4 2 10 13 8 13 10 -2 10 -10 0 -16 7
-15 19 0 11 6 17 12 14 5 -3 4 0 -2 8 -9 8 -13 45 -13 106 0 59 -4 93 -11 93
-5 0 -7 -6 -3 -12 4 -8 3 -10 -2 -5 -10 9 -11 14 -13 52 0 15 -7 25 -16 25
-11 0 -15 12 -15 45 0 25 -4 45 -10 45 -5 0 -10 18 -10 40 l0 40 -45 0 c-33 0
-45 -4 -45 -15 0 -8 -4 -15 -10 -15 -5 0 -10 -25 -10 -55 0 -42 -3 -55 -15
-55 -11 0 -15 -12 -16 -47 -1 -27 -1 -51 0 -55 0 -5 -6 -8 -14 -8 -8 0 -14 3
-14 8 5 27 -3 52 -16 52 -11 0 -15 12 -16 48 -1 26 -1 51 0 55 1 5 -3 6 -9 2
-6 -3 -7 -11 -4 -17 4 -7 2 -8 -4 -4 -7 4 -12 23 -12 42 0 19 -4 34 -10 34 -5
0 -10 7 -10 15 0 8 -7 15 -15 15 -10 0 -15 10 -15 30 0 20 -5 30 -15 30 -8 0
-15 5 -15 10 0 6 -7 10 -15 10 -8 0 -15 7 -15 15 0 8 -4 15 -10 15 -5 0 -10 7
-10 15 0 8 -7 15 -15 15 -8 0 -15 7 -15 15 0 8 -7 15 -15 15 -8 0 -15 5 -15
10 0 6 -7 10 -15 10 -8 0 -15 7 -15 15 0 13 -18 20 -42 16 -5 0 -8 10 -8 24 0
20 -6 27 -30 32 -16 3 -30 12 -30 19 0 8 -5 14 -11 14 -14 0 -39 25 -39 39 0
6 -7 11 -15 11 -10 0 -15 10 -15 30 0 20 -5 30 -15 30 -11 0 -15 11 -15 35 0
22 -6 38 -15 41 -8 4 -15 12 -15 20 0 8 -7 14 -15 14 -13 0 -20 19 -16 43 1 5
-3 6 -9 2 -5 -3 -10 3 -10 14 0 12 -7 21 -15 21 -10 0 -15 10 -15 30 0 19 -5
30 -14 30 -16 0 -29 27 -21 41 4 5 -1 6 -9 3 -11 -4 -16 0 -16 15 0 12 -4 21
-10 21 -5 0 -10 7 -10 15 0 8 -7 15 -15 15 -9 0 -15 9 -15 25 0 16 -6 25 -15
25 -10 0 -15 10 -15 30 0 19 -5 30 -14 30 -10 0 -16 14 -18 43 -2 27 -7 41
-15 40 -12 -3 -18 51 -14 137 1 23 0 23 -9 5 -7 -15 -9 -6 -8 37 1 31 5 55 10
52 7 -4 14 64 9 90 -1 5 4 4 12 -2 11 -10 14 -5 15 28 1 30 -2 40 -13 40 -8 0
-15 7 -15 15 0 8 -4 15 -10 15 -5 0 -10 -7 -10 -15 0 -8 -7 -15 -15 -15 -8 0
-15 -7 -15 -15 0 -8 -7 -15 -15 -15 -8 0 -15 -4 -15 -10 0 -5 -7 -10 -15 -10
-8 0 -15 -7 -15 -15 0 -8 -4 -15 -10 -15 -5 0 -10 -7 -10 -15 0 -8 -7 -15 -15
-15 -8 0 -15 -7 -15 -15 0 -8 -7 -15 -15 -15 -12 0 -15 13 -15 55 0 42 -3 55
-15 55 -12 0 -15 13 -15 55 0 42 -3 55 -15 55 -12 0 -15 13 -15 59 0 33 -4 61
-10 63 -5 2 -11 20 -12 41 -2 25 -7 36 -15 32 -9 -3 -13 6 -13 25 0 20 -5 30
-15 30 -11 0 -15 12 -15 45 0 33 -4 45 -15 45 -11 0 -15 11 -15 41 0 24 -4 38
-10 34 -6 -4 -10 12 -10 39 0 34 -4 46 -15 46 -11 0 -15 12 -15 45 0 33 -4 45
-15 45 -14 0 -21 30 -16 68 1 6 -2 12 -8 12 -5 0 -12 -6 -14 -12 -3 -7 -6 6
-6 30 -1 30 -5 42 -16 42 -11 0 -15 11 -15 40 0 22 -4 40 -10 40 -5 0 -10 14
-10 30 0 20 -5 30 -15 30 -9 0 -15 9 -15 25 0 21 -5 25 -30 25 -20 0 -30 -5
-30 -15z m-1765 -2835 c-3 -5 -12 -10 -18 -10 -7 0 -6 4 3 10 19 12 23 12 15
0z m-650 -1270 c3 -5 1 -10 -4 -10 -6 0 -11 5 -11 10 0 6 2 10 4 10 3 0 8 -4
11 -10z m3475 -1045 c0 -16 -6 -25 -15 -25 -10 0 -15 -10 -15 -30 0 -20 -5
-30 -15 -30 -11 0 -15 -11 -15 -40 0 -22 -4 -40 -10 -40 -5 0 -10 -20 -10 -45
0 -33 -4 -45 -15 -45 -11 0 -15 -12 -16 -40 -2 -54 -3 -57 -13 -67 -5 -4 -6
-3 -2 4 3 6 2 14 -4 18 -6 4 -10 -9 -10 -34 0 -30 -4 -41 -15 -41 -11 0 -15
-12 -15 -45 0 -33 -4 -45 -15 -45 -9 0 -15 -9 -15 -25 0 -14 -4 -25 -10 -25
-5 0 -10 -13 -10 -30 0 -20 -5 -30 -15 -30 -8 0 -15 -4 -15 -10 0 -5 -7 -10
-15 -10 -8 0 -15 -7 -15 -15 0 -8 -7 -15 -15 -15 -8 0 -15 -7 -15 -15 0 -8 -4
-15 -10 -15 -5 0 -10 -7 -10 -15 0 -8 -7 -15 -15 -15 -8 0 -15 -7 -15 -15 0
-8 -7 -15 -15 -15 -9 0 -15 -9 -15 -25 0 -16 -6 -25 -15 -25 -8 0 -15 -7 -15
-15 0 -8 -7 -15 -15 -15 -8 0 -15 -7 -15 -15 0 -8 -4 -15 -10 -15 -5 0 -10
-11 -10 -25 0 -16 -6 -25 -15 -25 -11 0 -15 -12 -15 -45 0 -33 -4 -45 -15 -45
-9 0 -15 -9 -15 -25 0 -16 -6 -25 -15 -25 -9 0 -15 -10 -15 -26 0 -33 -21 -54
-54 -54 -21 0 -26 5 -26 25 0 16 6 25 15 25 9 0 15 9 15 24 0 13 11 31 25 42
18 13 25 28 25 52 0 24 4 31 13 26 7 -5 6 0 -3 11 -14 17 -13 18 3 12 12 -5
17 -1 17 13 0 11 7 20 15 20 9 0 15 9 15 25 0 16 6 25 15 25 14 0 19 14 18 47
-1 7 3 10 8 7 5 -3 9 2 9 10 0 9 7 16 15 16 8 0 15 7 15 15 0 8 7 15 15 15 10
0 15 10 15 30 0 20 5 30 15 30 8 0 15 7 15 15 0 8 5 15 11 15 19 0 39 28 39
55 0 20 4 26 15 21 10 -4 15 1 15 14 0 11 7 20 15 20 8 0 15 5 15 10 0 6 7 10
15 10 10 0 15 10 15 30 0 17 5 30 10 30 6 0 10 18 10 40 0 22 -4 40 -10 40 -6
0 -10 30 -10 70 0 40 4 70 10 70 6 0 10 20 10 45 0 33 4 45 15 45 9 0 15 9 15
25 0 16 6 25 15 25 8 0 15 7 15 15 0 8 7 15 15 15 8 0 15 6 15 13 0 12 44 37
67 37 7 0 13 7 13 15 0 8 7 15 15 15 9 0 15 -9 15 -25z m-2000 -15 c0 -5 7
-10 15 -10 8 0 15 -7 15 -15 0 -8 5 -15 10 -15 6 0 10 -7 10 -15 0 -8 7 -15
15 -15 9 0 15 -9 15 -25 0 -16 6 -25 15 -25 10 0 15 -10 15 -30 0 -20 5 -30
15 -30 12 0 15 -17 15 -95 0 -78 -3 -95 -15 -95 -10 0 -15 -10 -15 -30 0 -20
5 -30 15 -30 10 0 15 -10 15 -30 0 -16 5 -30 11 -30 14 0 39 -25 39 -39 0 -6
7 -11 15 -11 8 0 15 -7 15 -15 0 -8 7 -15 15 -15 9 0 15 -9 15 -25 0 -16 6
-25 15 -25 8 0 15 -7 15 -15 0 -8 5 -15 10 -15 6 0 10 -7 10 -15 0 -8 7 -15
15 -15 10 0 15 -10 15 -30 0 -20 5 -30 15 -30 8 0 15 -4 15 -10 0 -5 7 -10 15
-10 10 0 15 -10 15 -30 0 -20 5 -30 15 -30 8 0 15 -7 15 -15 0 -8 5 -15 11
-15 7 0 10 -12 7 -29 -3 -23 -1 -27 14 -23 14 3 18 -2 18 -27 0 -21 5 -31 15
-31 9 0 15 -9 15 -25 0 -16 6 -25 15 -25 10 0 15 -10 15 -30 0 -16 5 -30 10
-30 6 0 10 -11 10 -24 0 -14 -4 -28 -10 -31 -5 -3 -10 1 -10 9 0 9 -7 16 -15
16 -8 0 -15 7 -15 15 0 8 -7 15 -15 15 -11 0 -15 11 -15 40 0 29 -4 40 -15 40
-11 0 -15 11 -15 36 0 21 -4 33 -10 29 -6 -4 -10 7 -10 24 0 21 -5 31 -15 31
-8 0 -15 5 -15 10 0 6 -7 10 -15 10 -10 0 -15 10 -15 30 0 20 -5 30 -15 30 -8
0 -15 7 -15 15 0 8 -5 15 -11 15 -14 0 -39 25 -39 39 0 6 -7 11 -15 11 -8 0
-15 7 -15 15 0 8 -6 15 -14 15 -7 0 -16 9 -19 21 -3 12 -10 18 -16 14 -7 -4
-11 4 -11 19 0 14 -4 26 -10 26 -5 0 -10 7 -10 15 0 8 -7 15 -15 15 -10 0 -15
10 -15 30 0 20 -5 30 -15 30 -9 0 -15 9 -15 25 0 16 -6 25 -15 25 -11 0 -15
12 -15 45 0 33 -4 45 -15 45 -11 0 -15 11 -15 40 0 22 -4 40 -10 40 -5 0 -10
18 -10 40 0 29 -4 40 -15 40 -11 0 -15 12 -15 45 0 33 -4 45 -15 45 -11 0 -15
11 -15 40 0 29 -4 40 -15 40 -9 0 -15 9 -15 25 0 21 5 25 30 25 17 0 30 -4 30
-10z m580 -1135 c0 -8 -7 -15 -15 -15 -8 0 -15 7 -15 15 0 8 7 15 15 15 8 0
15 -7 15 -15z"/>
<path d="M3003 5955 c0 -8 4 -12 9 -9 5 3 6 10 3 15 -9 13 -12 11 -12 -6z"/>
<path d="M2514 5132 c3 -5 0 -13 -6 -15 -9 -4 -10 -6 -1 -6 17 -1 25 16 12 25
-7 4 -9 3 -5 -4z"/>
<path d="M3735 230 c3 -5 8 -10 11 -10 2 0 4 5 4 10 0 6 -5 10 -11 10 -5 0 -7
-4 -4 -10z"/>
</g>
</svg>
